<svg width="720" height="78" viewBox="0 0 720 78" fill="none" xmlns="http://www.w3.org/2000/svg">
<path d="M76.8699 38.9066C76.8699 57.1116 62.1118 71.8698 43.9068 71.8698C43.3384 71.8698 42.7701 71.8584 42.2131 71.8243H42.1903C24.6821 70.9037 10.958 56.4391 10.958 38.9066C10.958 21.3742 24.6821 6.90946 42.1905 5.9889H42.2132C42.7701 5.9548 43.3385 5.94348 43.9069 5.94348C62.1118 5.94348 76.8699 20.7016 76.8699 38.9066Z" fill="#1566C0"/>
<path d="M73.4599 38.9067C73.4513 56.3002 59.9353 70.6967 42.5769 71.8016C42.4518 71.8129 42.3382 71.8129 42.2131 71.8244H42.1903C24.6821 70.9037 10.958 56.4391 10.958 38.9067C10.958 21.3742 24.6821 6.90951 42.1905 5.98895H42.2132C59.7271 6.90219 73.4595 21.3689 73.4599 38.9067Z" fill="#2296F3"/>
<path d="M58.5627 23.4116C58.1308 24.7415 56.5736 25.3212 55.5279 26.0487C54.1683 27.0791 52.6776 27.9239 51.0949 28.5607C49.515 29.1291 47.6962 29.2086 46.2755 30.1293C44.8546 31.05 44.9343 32.3799 45.1161 33.8575C45.1946 34.2259 45.1027 34.6101 44.8661 34.9033C44.4472 35.2127 43.8845 35.244 43.4339 34.9828C42.3768 34.5508 41.4448 33.8462 40.2739 34.3349C39.2348 34.7906 38.5714 35.8261 38.5917 36.9606C38.5917 39.3817 40.6831 40.7115 42.354 42.0642C42.8314 42.4621 44.991 44.7694 43.7067 45.3037C43.437 45.3772 43.151 45.3654 42.8883 45.2696C40.4103 44.6445 37.9325 44.0307 35.4546 43.4282C33.3858 42.928 31.1011 42.2688 30.0668 40.4161C29.1915 38.8475 29.4417 36.7902 28.3846 35.358C27.4526 34.0963 25.8043 33.6758 24.3039 33.2438C22.8036 32.8119 21.1781 32.0958 20.6212 30.6409C19.7118 28.2426 22.3148 25.6737 21.6783 23.1844C21.0758 20.8543 18.6321 20.661 16.7679 21.4907C16.3687 21.6631 16.0061 21.9099 15.6995 22.2182L15.5518 22.0704C19.8409 14.8278 26.7447 9.50641 34.8409 7.20294C36.1071 9.1397 38.2244 10.3526 40.5356 10.4652C42.4451 10.5562 44.3434 9.79452 46.1279 10.9198C47.1193 11.4858 47.6121 12.6432 47.3327 13.7501C46.8099 15.2164 44.6275 15.9438 44.7639 17.4897C44.8775 18.7173 46.4802 19.2402 47.6737 18.956C48.8672 18.6719 49.9356 17.9217 51.1632 17.7398C53.0728 17.467 54.846 18.6491 56.4146 19.7744C57.642 20.661 59.0241 21.9795 58.5627 23.4116Z" fill="#CDDC39"/>
<path d="M65.1509 64.095C59.2296 69.0964 51.7259 71.8353 43.975 71.8243C43.5089 71.8243 43.043 71.813 42.5769 71.8016C50.1313 71.3382 57.2924 68.2737 62.8435 63.1289C63.5937 63.4812 64.3666 63.7996 65.1509 64.095Z" fill="#9E9D24"/>
<path d="M62.8432 63.1288C57.292 68.2736 50.131 71.338 42.5766 71.8014C41.316 71.7476 40.0596 71.6185 38.8143 71.415C38.2743 71.1176 37.7507 70.7912 37.2457 70.4374C36.0112 69.6738 35.2008 68.3805 35.052 66.9365C35.1087 66.0715 35.3738 65.233 35.825 64.4926C36.3819 63.4014 36.291 61.992 37.1321 61.0599C37.8482 60.2756 38.9507 60.071 39.7805 59.4344C40.5623 58.8026 41.2114 58.0222 41.6901 57.1384C42.2546 55.7667 42.9714 54.4628 43.8271 53.251C45.3047 51.6938 47.7486 52.3303 49.4308 53.1374C51.2771 53.9736 52.9742 55.1063 54.4548 56.4905C55.9349 58.0597 57.5103 59.5364 59.1718 60.9121C60.3021 61.7961 61.5347 62.5403 62.8432 63.1288Z" fill="#CDDC39"/>
<path d="M43.9978 5.00006C40.8602 4.99433 37.7373 5.4267 34.7192 6.28452L34.6738 6.29811C26.2975 8.66645 19.1573 14.1742 14.7402 21.6748C14.662 21.807 14.6114 21.9535 14.5913 22.1056C14.0485 22.8301 13.598 23.6193 13.2501 24.455L13.1648 24.6391C8.27433 35.173 9.09259 47.4734 15.3355 57.2666C21.5784 67.0597 32.3841 72.9935 43.9978 73.0061C51.8052 73.0128 59.3748 70.3199 65.4238 65.3837C65.9138 65.4257 66.3743 65.1444 66.5604 64.6891C66.596 64.5842 66.6162 64.4747 66.6206 64.364C77.1548 54.9808 80.7971 40.0655 75.7735 26.8832C70.7499 13.7008 58.1049 4.99286 43.9978 5.00006ZM34.5545 8.70681C36.0572 10.5499 38.2716 11.6687 40.647 11.7848C41.2965 11.8016 41.9462 11.7733 42.5919 11.6996C43.636 11.4629 44.7298 11.593 45.6892 12.0679C46.2263 12.3551 46.5228 12.9508 46.4281 13.5524C46.1814 14.0056 45.8431 14.4023 45.4347 14.7176C44.4189 15.4066 43.8068 16.5511 43.7979 17.7785C43.8747 18.5427 44.2838 19.2343 44.9164 19.6699C45.8516 20.2946 47.0041 20.5033 48.099 20.2461C48.7056 20.0872 49.2965 19.8734 49.8642 19.6073C50.3803 19.3534 50.9265 19.166 51.4896 19.0492C52.9286 18.8468 54.4064 19.7981 55.9146 20.8803C56.6705 21.4271 57.9015 22.4602 57.6469 23.2445C57.4514 23.8458 56.7172 24.28 55.9419 24.7414C55.6282 24.9267 55.3213 25.1085 54.9666 25.3552C53.7111 26.3059 52.3351 27.0859 50.8747 27.6752C50.3227 27.8589 49.7607 28.0107 49.1912 28.1298C48.0055 28.3372 46.8661 28.7532 45.8256 29.3586C43.7375 30.7067 43.9922 32.8641 44.1525 34.1609C44.1149 34.1484 44.074 34.1336 44.0297 34.1143C43.8353 34.0348 43.6443 33.9438 43.4545 33.8551C42.2791 33.0623 40.7566 33.0013 39.5216 33.6978C38.2865 34.3943 37.5508 35.7286 37.6212 37.1447C37.6212 39.842 39.624 41.4151 41.2335 42.6779L41.7927 43.1212C42.1479 43.4475 42.4676 43.8106 42.7463 44.2044C40.4616 43.6292 38.1754 43.0635 35.8877 42.5074C33.9645 42.0425 32.0231 41.4696 31.2273 40.0465C30.9232 39.4016 30.7182 38.7146 30.6193 38.0085C30.4751 36.8881 30.0813 35.8145 29.4667 34.8668C28.3001 33.5647 26.728 32.6948 25.0053 32.398L24.7973 32.3389C23.0923 31.8319 22.158 31.2216 21.8534 30.4225C21.6634 29.3854 21.8326 28.3146 22.333 27.3864C22.9756 26.0497 23.1899 24.5472 22.9468 23.0841C22.6917 21.9622 21.9418 21.0161 20.9076 20.5118C20.2932 20.2257 19.6224 20.0816 18.9446 20.0901C18.8002 20.0901 18.6536 20.0969 18.5059 20.1084C22.4985 14.6894 28.1232 10.6932 34.5545 8.70681ZM39.2317 70.3739C38.7858 70.1266 38.3531 69.8557 37.9359 69.5623C37.0171 68.99 36.3889 68.05 36.2116 66.9821C36.275 66.2965 36.4968 65.635 36.8595 65.0497C37.1135 64.5087 37.3014 63.9388 37.4187 63.3527C37.4909 62.8206 37.6854 62.3125 37.9871 61.8682C38.3231 61.5618 38.7126 61.3199 39.1362 61.1544C39.6105 60.9443 40.0616 60.6852 40.482 60.3814C41.3889 59.659 42.1411 58.7614 42.6939 57.7421C42.961 57.2738 43.1918 56.7635 43.4145 56.2645C43.7169 55.4734 44.1385 54.7332 44.6649 54.0696C45.8015 52.8726 48.0408 53.7615 48.9479 54.1957C50.6786 54.9731 52.2699 56.0294 53.6582 57.3227L53.7888 57.4568C55.2597 59.0114 56.8248 60.4741 58.4753 61.8363C59.8408 62.8912 61.3369 63.765 62.9265 64.4359C56.1347 69.5007 47.5979 71.6355 39.2215 70.3636L39.2317 70.3739ZM64.9351 62.8184C63.1324 62.1515 61.4372 61.2244 59.9031 60.0666C58.3253 58.7608 56.8287 57.3602 55.4212 55.8724L55.2906 55.7394C53.7234 54.2545 51.9174 53.0441 49.9482 52.1589C47.0725 50.7791 44.5514 50.9086 43.0272 52.5158C42.3165 53.3572 41.7507 54.3111 41.3528 55.3381C41.1494 55.7859 40.9516 56.2281 40.7322 56.6146C40.328 57.3702 39.7773 58.038 39.1125 58.5788C38.8137 58.7868 38.4951 58.9646 38.1612 59.1096C37.4687 59.3938 36.8399 59.8134 36.3118 60.344C35.7361 61.0628 35.3573 61.9191 35.2126 62.8287C35.1335 63.2352 35.0096 63.6316 34.8432 64.0109C34.3016 64.9149 33.9917 65.9386 33.9408 66.9911C33.9574 67.8169 34.1988 68.6223 34.6386 69.3212C25.8837 66.6071 18.7274 60.2443 15.0078 51.8671C11.2883 43.4899 11.3676 33.9142 15.2255 25.5998L15.3119 25.4122C15.6204 24.5974 16.081 23.8488 16.6691 23.206C16.8781 22.9975 17.1245 22.8301 17.3955 22.7127C17.8857 22.4934 18.4157 22.3773 18.9528 22.3717C19.2847 22.364 19.6144 22.43 19.9178 22.565C20.347 22.7815 20.6516 23.1844 20.743 23.6562C20.8426 24.6732 20.6532 25.6975 20.1962 26.6116C19.4706 28.0419 19.3033 29.6909 19.7268 31.2378C20.4895 33.2304 22.615 34.0669 24.1598 34.5262L24.3871 34.5898C25.6154 34.7867 26.7532 35.357 27.6459 36.2232C28.0493 36.908 28.3053 37.6695 28.3973 38.459C28.537 39.399 28.8248 40.3109 29.2498 41.1608C30.491 43.3853 33.0565 44.1662 35.3617 44.7231C37.8351 45.3239 40.3107 45.9371 42.7886 46.5622C43.2868 46.7247 43.8247 46.7179 44.3186 46.5429C44.8947 46.3191 45.3072 45.8045 45.4007 45.1937C45.6599 43.4716 43.2808 41.4006 43.2411 41.371L42.6432 40.8959C41.2325 39.7889 39.9004 38.7431 39.9004 37.1449C39.8869 36.4736 40.2738 35.8585 40.8848 35.5798C41.3087 35.4036 41.6633 35.5321 42.4897 35.9208C42.7171 36.0276 42.9443 36.1345 43.1524 36.2186C44.0355 36.6923 45.1218 36.5555 45.8599 35.8776C46.34 35.3416 46.5426 34.6124 46.4077 33.9056C46.2214 32.3904 46.2941 31.7641 47.0579 31.2697C47.8827 30.8164 48.778 30.5055 49.7063 30.3502C50.3602 30.2102 51.0055 30.0322 51.6387 29.8171C53.3156 29.148 54.8951 28.2573 56.3354 27.1686C56.5628 27.0084 56.8253 26.856 57.0891 26.7003C58.3056 26.155 59.2736 25.1735 59.8023 23.9495C60.3376 22.3059 59.4749 20.6532 57.2357 19.038C55.7978 18.007 53.6177 16.4486 51.1557 16.8022C50.3918 16.9424 49.6504 17.1857 48.9517 17.5251C48.5066 17.735 48.0441 17.9061 47.5695 18.0366C47.1138 18.1418 46.6352 18.0664 46.2339 17.8262C46.0669 17.7057 46.0577 17.6114 46.0543 17.5762C46.0293 17.2806 46.3953 16.9158 46.9637 16.3918C47.6639 15.8416 48.2154 15.125 48.5676 14.3072C49.0351 12.6995 48.345 10.9804 46.8956 10.1425C45.5191 9.38534 43.9204 9.13558 42.3786 9.43662C41.8377 9.50029 41.2932 9.52613 40.7486 9.51388C39.3898 9.44022 38.0931 8.92086 37.0591 8.03627C51.2073 4.84927 65.7147 11.666 72.292 24.5914C78.8687 37.5168 75.8397 53.2572 64.9351 62.8184Z" fill="black"/>
<path d="M125.621 32.956H116.033C115.905 31.9716 115.643 31.0831 115.246 30.2905C114.85 29.4979 114.326 28.8203 113.674 28.2578C113.022 27.6953 112.249 27.267 111.354 26.973C110.472 26.6662 109.494 26.5128 108.42 26.5128C106.515 26.5128 104.872 26.9794 103.491 27.9126C102.124 28.8459 101.069 30.1946 100.327 31.9588C99.5987 33.723 99.2344 35.858 99.2344 38.3636C99.2344 40.9716 99.6051 43.1577 100.347 44.9219C101.101 46.6733 102.156 47.9964 103.511 48.8913C104.879 49.7734 106.496 50.2145 108.362 50.2145C109.411 50.2145 110.363 50.0803 111.219 49.8118C112.089 49.5433 112.849 49.1534 113.501 48.642C114.166 48.1179 114.71 47.4851 115.131 46.7436C115.566 45.9893 115.866 45.1392 116.033 44.1932L125.621 44.2507C125.455 45.9893 124.95 47.7024 124.106 49.3899C123.275 51.0774 122.131 52.6179 120.673 54.0114C119.216 55.392 117.439 56.4915 115.342 57.3097C113.259 58.1278 110.868 58.5369 108.17 58.5369C104.616 58.5369 101.433 57.7571 98.6207 56.1974C95.821 54.625 93.6094 52.3366 91.9858 49.3324C90.3622 46.3281 89.5504 42.6719 89.5504 38.3636C89.5504 34.0426 90.375 30.38 92.0241 27.3757C93.6733 24.3714 95.9041 22.0895 98.7166 20.5298C101.529 18.9702 104.68 18.1903 108.17 18.1903C110.548 18.1903 112.747 18.5227 114.767 19.1875C116.787 19.8395 118.564 20.7983 120.098 22.0639C121.632 23.3168 122.879 24.8572 123.837 26.6854C124.796 28.5135 125.391 30.6037 125.621 32.956ZM143.722 58.5561C140.628 58.5561 137.969 57.9233 135.744 56.6577C133.533 55.3793 131.826 53.6023 130.624 51.3267C129.435 49.0384 128.841 46.3857 128.841 43.3686C128.841 40.3388 129.435 37.6861 130.624 35.4105C131.826 33.1222 133.533 31.3452 135.744 30.0795C137.969 28.8011 140.628 28.1619 143.722 28.1619C146.815 28.1619 149.468 28.8011 151.68 30.0795C153.904 31.3452 155.611 33.1222 156.8 35.4105C158.001 37.6861 158.602 40.3388 158.602 43.3686C158.602 46.3857 158.001 49.0384 156.8 51.3267C155.611 53.6023 153.904 55.3793 151.68 56.6577C149.468 57.9233 146.815 58.5561 143.722 58.5561ZM143.779 51.4801C144.904 51.4801 145.857 51.1349 146.636 50.4446C147.416 49.7543 148.011 48.7955 148.42 47.5682C148.842 46.3409 149.053 44.9219 149.053 43.3111C149.053 41.6747 148.842 40.2429 148.42 39.0156C148.011 37.7884 147.416 36.8295 146.636 36.1392C145.857 35.4489 144.904 35.1037 143.779 35.1037C142.616 35.1037 141.631 35.4489 140.826 36.1392C140.033 36.8295 139.426 37.7884 139.004 39.0156C138.595 40.2429 138.391 41.6747 138.391 43.3111C138.391 44.9219 138.595 46.3409 139.004 47.5682C139.426 48.7955 140.033 49.7543 140.826 50.4446C141.631 51.1349 142.616 51.4801 143.779 51.4801ZM181.33 45.2862V28.5455H190.687V58H181.751V52.5156H181.445C180.793 54.3182 179.68 55.75 178.108 56.8111C176.548 57.8594 174.663 58.3835 172.451 58.3835C170.444 58.3835 168.68 57.9233 167.158 57.0028C165.637 56.0824 164.455 54.7976 163.611 53.1484C162.767 51.4865 162.339 49.5433 162.326 47.3189V28.5455H171.703V45.478C171.716 47.076 172.138 48.3352 172.969 49.2557C173.8 50.1761 174.931 50.6364 176.363 50.6364C177.296 50.6364 178.133 50.4318 178.875 50.0227C179.629 49.6009 180.224 48.9936 180.658 48.201C181.106 47.3956 181.33 46.424 181.33 45.2862ZM204.953 41.2017V58H195.576V28.5455H204.493V33.9531H204.819C205.471 32.1506 206.583 30.7379 208.156 29.7152C209.728 28.6797 211.601 28.1619 213.774 28.1619C215.845 28.1619 217.641 28.6286 219.163 29.5618C220.697 30.4822 221.886 31.7734 222.729 33.4354C223.586 35.0845 224.008 37.0149 223.995 39.2266V58H214.618V41.0675C214.631 39.4311 214.215 38.1527 213.372 37.2322C212.541 36.3118 211.384 35.8516 209.901 35.8516C208.916 35.8516 208.047 36.0689 207.293 36.5036C206.551 36.9254 205.976 37.5327 205.567 38.3253C205.171 39.1179 204.966 40.0767 204.953 41.2017ZM245.346 28.5455V35.4489H226.765V28.5455H245.346ZM230.657 21.4886H240.035V48.7379C240.035 49.3132 240.124 49.7798 240.303 50.1378C240.495 50.483 240.77 50.7322 241.128 50.8857C241.486 51.0263 241.914 51.0966 242.412 51.0966C242.77 51.0966 243.148 51.0646 243.544 51.0007C243.953 50.924 244.26 50.8601 244.464 50.8089L245.883 57.5781C245.436 57.706 244.803 57.8658 243.985 58.0575C243.179 58.2493 242.214 58.3707 241.089 58.4219C238.89 58.5241 237.005 58.2685 235.432 57.6548C233.873 57.0284 232.677 56.0568 231.846 54.7401C231.028 53.4233 230.632 51.7678 230.657 49.7734V21.4886ZM249.051 58V28.5455H258.159V33.9148H258.466C259.003 31.9716 259.879 30.527 261.093 29.581C262.308 28.6222 263.721 28.1428 265.331 28.1428C265.766 28.1428 266.213 28.1747 266.674 28.2386C267.134 28.2898 267.562 28.3729 267.958 28.4879V36.6378C267.511 36.4844 266.923 36.3629 266.194 36.2734C265.478 36.1839 264.839 36.1392 264.277 36.1392C263.164 36.1392 262.161 36.3885 261.266 36.8871C260.384 37.3729 259.687 38.0568 259.176 38.9389C258.677 39.8082 258.428 40.831 258.428 42.0071V58H249.051ZM277.329 69.0455C276.204 69.0455 275.143 68.956 274.146 68.777C273.149 68.6108 272.293 68.3871 271.577 68.1058L273.648 61.2983C274.568 61.6051 275.399 61.7841 276.141 61.8352C276.895 61.8864 277.54 61.7649 278.077 61.4709C278.627 61.1896 279.049 60.6847 279.343 59.956L279.707 59.0739L269.237 28.5455H279.055L284.482 49.5625H284.789L290.293 28.5455H300.168L289.065 60.8189C288.528 62.4297 287.768 63.8487 286.783 65.076C285.812 66.3161 284.552 67.2876 283.006 67.9908C281.472 68.6939 279.579 69.0455 277.329 69.0455ZM334.433 30.5014C334.305 29.0952 333.737 28.0021 332.727 27.2223C331.729 26.4297 330.304 26.0334 328.45 26.0334C327.223 26.0334 326.2 26.1932 325.382 26.5128C324.564 26.8324 323.95 27.2734 323.541 27.8359C323.132 28.3857 322.921 29.0185 322.908 29.7344C322.883 30.3224 322.998 30.8402 323.254 31.2876C323.522 31.7351 323.906 32.1314 324.404 32.4766C324.916 32.8089 325.529 33.103 326.245 33.3587C326.961 33.6143 327.766 33.8381 328.661 34.0298L332.036 34.7969C333.979 35.2188 335.693 35.7812 337.176 36.4844C338.671 37.1875 339.924 38.0249 340.934 38.9964C341.957 39.968 342.73 41.0866 343.254 42.3523C343.779 43.6179 344.047 45.0369 344.06 46.6094C344.047 49.0895 343.421 51.218 342.18 52.995C340.94 54.772 339.157 56.1335 336.83 57.0795C334.516 58.0256 331.723 58.4986 328.45 58.4986C325.165 58.4986 322.301 58.0064 319.859 57.022C317.418 56.0376 315.519 54.5419 314.164 52.5348C312.809 50.5277 312.112 47.9901 312.074 44.9219H321.163C321.24 46.1875 321.579 47.2422 322.18 48.0859C322.781 48.9297 323.605 49.5689 324.654 50.0036C325.715 50.4382 326.942 50.6555 328.335 50.6555C329.614 50.6555 330.7 50.483 331.595 50.1378C332.503 49.7926 333.2 49.3132 333.685 48.6996C334.171 48.0859 334.421 47.3828 334.433 46.5902C334.421 45.8487 334.19 45.2159 333.743 44.6918C333.296 44.1548 332.605 43.6946 331.672 43.3111C330.752 42.9148 329.575 42.5504 328.144 42.218L324.04 41.2592C320.639 40.4794 317.961 39.2202 316.005 37.4815C314.049 35.7301 313.078 33.3651 313.09 30.3864C313.078 27.9574 313.729 25.8288 315.046 24.0007C316.363 22.1726 318.185 20.7472 320.511 19.7244C322.838 18.7017 325.491 18.1903 328.47 18.1903C331.512 18.1903 334.152 18.7081 336.389 19.7436C338.639 20.7663 340.384 22.2045 341.624 24.0582C342.864 25.9119 343.497 28.0597 343.523 30.5014H334.433ZM364.399 28.5455V35.4489H345.818V28.5455H364.399ZM349.711 21.4886H359.088V48.7379C359.088 49.3132 359.177 49.7798 359.356 50.1378C359.548 50.483 359.823 50.7322 360.181 50.8857C360.539 51.0263 360.967 51.0966 361.466 51.0966C361.824 51.0966 362.201 51.0646 362.597 51.0007C363.006 50.924 363.313 50.8601 363.517 50.8089L364.936 57.5781C364.489 57.706 363.856 57.8658 363.038 58.0575C362.233 58.2493 361.267 58.3707 360.142 58.4219C357.944 58.5241 356.058 58.2685 354.485 57.6548C352.926 57.0284 351.73 56.0568 350.899 54.7401C350.081 53.4233 349.685 51.7678 349.711 49.7734V21.4886ZM376.407 58.4986C374.528 58.4986 372.86 58.1854 371.402 57.5589C369.958 56.9197 368.813 55.9609 367.97 54.6825C367.139 53.3913 366.723 51.7741 366.723 49.831C366.723 48.1946 367.011 46.8139 367.586 45.6889C368.161 44.5639 368.954 43.6499 369.964 42.9467C370.974 42.2436 372.137 41.7131 373.454 41.3551C374.771 40.9844 376.177 40.7351 377.673 40.6072C379.348 40.4538 380.696 40.294 381.719 40.1278C382.742 39.9489 383.483 39.6996 383.943 39.38C384.416 39.0476 384.653 38.581 384.653 37.9801V37.8842C384.653 36.8999 384.314 36.1392 383.637 35.6023C382.959 35.0653 382.045 34.7969 380.894 34.7969C379.654 34.7969 378.657 35.0653 377.903 35.6023C377.149 36.1392 376.669 36.8807 376.465 37.8267L367.816 37.5199C368.072 35.7301 368.73 34.1321 369.791 32.7259C370.865 31.3068 372.335 30.1946 374.202 29.3892C376.081 28.571 378.338 28.1619 380.971 28.1619C382.85 28.1619 384.583 28.3857 386.168 28.8331C387.753 29.2678 389.134 29.907 390.31 30.7507C391.486 31.5817 392.394 32.6044 393.033 33.8189C393.685 35.0334 394.011 36.4205 394.011 37.9801V58H385.19V53.8963H384.96C384.436 54.8935 383.764 55.7372 382.946 56.4276C382.141 57.1179 381.188 57.6357 380.089 57.9808C379.002 58.326 377.775 58.4986 376.407 58.4986ZM379.303 52.3622C380.313 52.3622 381.22 52.1577 382.026 51.7486C382.844 51.3395 383.496 50.777 383.982 50.0611C384.468 49.3324 384.71 48.4886 384.71 47.5298V44.7301C384.442 44.8707 384.116 44.9986 383.733 45.1136C383.362 45.2287 382.953 45.3374 382.505 45.4396C382.058 45.5419 381.598 45.6314 381.125 45.7081C380.652 45.7848 380.198 45.8551 379.763 45.919C378.881 46.0597 378.127 46.277 377.5 46.571C376.887 46.8651 376.414 47.2486 376.081 47.7216C375.762 48.1818 375.602 48.7315 375.602 49.3707C375.602 50.3423 375.947 51.0838 376.637 51.5952C377.34 52.1065 378.229 52.3622 379.303 52.3622ZM415.29 28.5455V35.4489H396.709V28.5455H415.29ZM400.601 21.4886H409.978V48.7379C409.978 49.3132 410.068 49.7798 410.247 50.1378C410.439 50.483 410.714 50.7322 411.072 50.8857C411.429 51.0263 411.858 51.0966 412.356 51.0966C412.714 51.0966 413.091 51.0646 413.488 51.0007C413.897 50.924 414.204 50.8601 414.408 50.8089L415.827 57.5781C415.38 57.706 414.747 57.8658 413.929 58.0575C413.123 58.2493 412.158 58.3707 411.033 58.4219C408.834 58.5241 406.949 58.2685 405.376 57.6548C403.817 57.0284 402.621 56.0568 401.79 54.7401C400.972 53.4233 400.576 51.7678 400.601 49.7734V21.4886ZM432.447 58.5561C429.366 58.5561 426.707 57.9489 424.47 56.7344C422.245 55.5071 420.532 53.7621 419.33 51.4993C418.141 49.2237 417.547 46.5199 417.547 43.3878C417.547 40.3452 418.148 37.6861 419.349 35.4105C420.551 33.1222 422.245 31.3452 424.431 30.0795C426.617 28.8011 429.193 28.1619 432.159 28.1619C434.256 28.1619 436.173 28.4879 437.912 29.1399C439.651 29.7919 441.153 30.7571 442.418 32.0355C443.684 33.3139 444.668 34.8928 445.372 36.772C446.075 38.6385 446.426 40.7798 446.426 43.196V45.5355H420.826V40.0895H437.701C437.688 39.0923 437.452 38.2038 436.992 37.424C436.531 36.6442 435.898 36.0369 435.093 35.6023C434.3 35.1548 433.386 34.9311 432.351 34.9311C431.303 34.9311 430.363 35.1676 429.532 35.6406C428.701 36.1009 428.043 36.7337 427.557 37.5391C427.071 38.3317 426.815 39.233 426.79 40.2429V45.7848C426.79 46.9865 427.026 48.0412 427.499 48.9489C427.972 49.8437 428.644 50.5405 429.513 51.0391C430.382 51.5376 431.418 51.7869 432.619 51.7869C433.45 51.7869 434.205 51.6719 434.882 51.4418C435.56 51.2116 436.141 50.8729 436.627 50.4254C437.113 49.978 437.477 49.4283 437.72 48.7763L446.33 49.0256C445.972 50.956 445.186 52.6371 443.972 54.0689C442.77 55.4879 441.191 56.5937 439.235 57.3864C437.279 58.1662 435.016 58.5561 432.447 58.5561ZM496.305 32.956H486.717C486.59 31.9716 486.327 31.0831 485.931 30.2905C485.535 29.4979 485.011 28.8203 484.359 28.2578C483.707 27.6953 482.933 27.267 482.038 26.973C481.156 26.6662 480.178 26.5128 479.104 26.5128C477.2 26.5128 475.557 26.9794 474.176 27.9126C472.808 28.8459 471.754 30.1946 471.012 31.9588C470.283 33.723 469.919 35.858 469.919 38.3636C469.919 40.9716 470.29 43.1577 471.031 44.9219C471.786 46.6733 472.84 47.9964 474.195 48.8913C475.563 49.7734 477.18 50.2145 479.047 50.2145C480.095 50.2145 481.048 50.0803 481.904 49.8118C482.773 49.5433 483.534 49.1534 484.186 48.642C484.851 48.1179 485.394 47.4851 485.816 46.7436C486.251 45.9893 486.551 45.1392 486.717 44.1932L496.305 44.2507C496.139 45.9893 495.634 47.7024 494.791 49.3899C493.96 51.0774 492.815 52.6179 491.358 54.0114C489.901 55.392 488.124 56.4915 486.027 57.3097C483.943 58.1278 481.553 58.5369 478.855 58.5369C475.301 58.5369 472.118 57.7571 469.305 56.1974C466.506 54.625 464.294 52.3366 462.67 49.3324C461.047 46.3281 460.235 42.6719 460.235 38.3636C460.235 34.0426 461.06 30.38 462.709 27.3757C464.358 24.3714 466.589 22.0895 469.401 20.5298C472.214 18.9702 475.365 18.1903 478.855 18.1903C481.233 18.1903 483.432 18.5227 485.452 19.1875C487.472 19.8395 489.249 20.7983 490.783 22.0639C492.317 23.3168 493.563 24.8572 494.522 26.6854C495.481 28.5135 496.075 30.6037 496.305 32.956ZM500.657 58V28.5455H510.034V58H500.657ZM505.355 25.1129C504.038 25.1129 502.907 24.6783 501.961 23.8089C501.015 22.9268 500.542 21.8658 500.542 20.6257C500.542 19.3984 501.015 18.3501 501.961 17.4808C502.907 16.5987 504.038 16.1577 505.355 16.1577C506.685 16.1577 507.816 16.5987 508.749 17.4808C509.695 18.3501 510.168 19.3984 510.168 20.6257C510.168 21.8658 509.695 22.9268 508.749 23.8089C507.816 24.6783 506.685 25.1129 505.355 25.1129ZM531.548 28.5455V35.4489H512.967V28.5455H531.548ZM516.86 21.4886H526.237V48.7379C526.237 49.3132 526.326 49.7798 526.505 50.1378C526.697 50.483 526.972 50.7322 527.33 50.8857C527.688 51.0263 528.116 51.0966 528.615 51.0966C528.972 51.0966 529.35 51.0646 529.746 51.0007C530.155 50.924 530.462 50.8601 530.666 50.8089L532.085 57.5781C531.638 57.706 531.005 57.8658 530.187 58.0575C529.382 58.2493 528.416 58.3707 527.291 58.4219C525.093 58.5241 523.207 58.2685 521.634 57.6548C520.075 57.0284 518.879 56.0568 518.048 54.7401C517.23 53.4233 516.834 51.7678 516.86 49.7734V21.4886ZM540.987 69.0455C539.862 69.0455 538.8 68.956 537.803 68.777C536.806 68.6108 535.95 68.3871 535.234 68.1058L537.305 61.2983C538.225 61.6051 539.056 61.7841 539.798 61.8352C540.552 61.8864 541.198 61.7649 541.734 61.4709C542.284 61.1896 542.706 60.6847 543 59.956L543.364 59.0739L532.894 28.5455H542.712L548.139 49.5625H548.446L553.95 28.5455H563.825L552.722 60.8189C552.185 62.4297 551.425 63.8487 550.44 65.076C549.469 66.3161 548.21 67.2876 546.663 67.9908C545.129 68.6939 543.237 69.0455 540.987 69.0455ZM591.379 58H576.862V18.7273H591.36C595.361 18.7273 598.806 19.5135 601.696 21.0859C604.598 22.6456 606.835 24.8956 608.407 27.8359C609.98 30.7635 610.766 34.2663 610.766 38.3445C610.766 42.4354 609.98 45.951 608.407 48.8913C606.848 51.8317 604.617 54.0881 601.715 55.6605C598.813 57.2202 595.367 58 591.379 58ZM586.355 49.9077H591.014C593.213 49.9077 595.073 49.5369 596.595 48.7955C598.129 48.0412 599.286 46.8203 600.066 45.1328C600.858 43.4325 601.255 41.1697 601.255 38.3445C601.255 35.5192 600.858 33.2692 600.066 31.5945C599.273 29.907 598.103 28.6925 596.556 27.951C595.022 27.1967 593.13 26.8196 590.88 26.8196H586.355V49.9077ZM628.977 58.5561C625.883 58.5561 623.224 57.9233 621 56.6577C618.788 55.3793 617.081 53.6023 615.88 51.3267C614.691 49.0384 614.096 46.3857 614.096 43.3686C614.096 40.3388 614.691 37.6861 615.88 35.4105C617.081 33.1222 618.788 31.3452 621 30.0795C623.224 28.8011 625.883 28.1619 628.977 28.1619C632.071 28.1619 634.724 28.8011 636.935 30.0795C639.16 31.3452 640.866 33.1222 642.055 35.4105C643.257 37.6861 643.858 40.3388 643.858 43.3686C643.858 46.3857 643.257 49.0384 642.055 51.3267C640.866 53.6023 639.16 55.3793 636.935 56.6577C634.724 57.9233 632.071 58.5561 628.977 58.5561ZM629.035 51.4801C630.16 51.4801 631.112 51.1349 631.892 50.4446C632.672 49.7543 633.266 48.7955 633.675 47.5682C634.097 46.3409 634.308 44.9219 634.308 43.3111C634.308 41.6747 634.097 40.2429 633.675 39.0156C633.266 37.7884 632.672 36.8295 631.892 36.1392C631.112 35.4489 630.16 35.1037 629.035 35.1037C627.871 35.1037 626.887 35.4489 626.081 36.1392C625.289 36.8295 624.682 37.7884 624.26 39.0156C623.851 40.2429 623.646 41.6747 623.646 43.3111C623.646 44.9219 623.851 46.3409 624.26 47.5682C624.682 48.7955 625.289 49.7543 626.081 50.4446C626.887 51.1349 627.871 51.4801 629.035 51.4801ZM661.331 58.5561C658.224 58.5561 655.559 57.9169 653.334 56.6385C651.123 55.3601 649.422 53.5831 648.233 51.3075C647.044 49.0192 646.45 46.3729 646.45 43.3686C646.45 40.3516 647.044 37.7053 648.233 35.4297C649.435 33.1413 651.142 31.358 653.353 30.0795C655.578 28.8011 658.231 28.1619 661.311 28.1619C664.034 28.1619 666.406 28.6541 668.426 29.6385C670.459 30.6229 672.044 32.0163 673.182 33.8189C674.332 35.6087 674.939 37.7116 675.003 40.1278H666.24C666.061 38.6193 665.549 37.4368 664.706 36.5803C663.875 35.7237 662.788 35.2955 661.446 35.2955C660.359 35.2955 659.407 35.6023 658.588 36.2159C657.77 36.8168 657.131 37.7116 656.671 38.9006C656.223 40.0767 656 41.5341 656 43.2727C656 45.0114 656.223 46.4815 656.671 47.6832C657.131 48.8722 657.77 49.7734 658.588 50.3871C659.407 50.9879 660.359 51.2884 661.446 51.2884C662.315 51.2884 663.082 51.103 663.747 50.7322C664.424 50.3615 664.981 49.8182 665.415 49.1023C665.85 48.3736 666.125 47.4915 666.24 46.456H675.003C674.914 48.8849 674.307 51.0071 673.182 52.8224C672.069 54.6378 670.503 56.0504 668.483 57.0604C666.476 58.0575 664.092 58.5561 661.331 58.5561ZM704.437 37.5391L695.827 37.7692C695.738 37.1555 695.495 36.6122 695.098 36.1392C694.702 35.6534 694.184 35.2763 693.545 35.0078C692.919 34.7266 692.19 34.5859 691.359 34.5859C690.272 34.5859 689.346 34.8033 688.579 35.2379C687.824 35.6726 687.454 36.2607 687.466 37.0021C687.454 37.5774 687.684 38.076 688.157 38.4979C688.643 38.9197 689.505 39.2585 690.745 39.5142L696.422 40.5881C699.362 41.1506 701.548 42.0838 702.98 43.3878C704.424 44.6918 705.153 46.4176 705.166 48.5653C705.153 50.5852 704.552 52.343 703.363 53.8388C702.187 55.3345 700.576 56.4979 698.531 57.3288C696.486 58.147 694.146 58.5561 691.513 58.5561C687.307 58.5561 683.989 57.6932 681.56 55.9673C679.144 54.2287 677.763 51.902 677.418 48.9872L686.68 48.7571C686.885 49.831 687.415 50.6491 688.272 51.2116C689.128 51.7741 690.221 52.0554 691.551 52.0554C692.753 52.0554 693.731 51.8317 694.485 51.3842C695.239 50.9368 695.623 50.3423 695.635 49.6009C695.623 48.9361 695.329 48.4055 694.753 48.0092C694.178 47.6001 693.277 47.2805 692.049 47.0504L686.91 46.0724C683.957 45.5355 681.758 44.5447 680.314 43.1001C678.869 41.6428 678.153 39.7891 678.166 37.5391C678.153 35.5703 678.677 33.8892 679.738 32.4957C680.799 31.0895 682.308 30.0156 684.264 29.2741C686.22 28.5327 688.527 28.1619 691.187 28.1619C695.175 28.1619 698.32 28.9993 700.621 30.674C702.922 32.3359 704.194 34.6243 704.437 37.5391Z" fill="white"/>
</svg>
